# xmcd CD database file
#
# Track frame offsets:
#	150
#	10575
#	26025
#	42450
#	63825
#	74775
#	87150
#	101625
#	121950
#	133725
#	146775
#	162750
#
# Disc length: 2438 seconds
#
# Revision: 0
# Processed by: cddbd v1.4PL0 Copyright (c) Steve Scherf et al.
# Submitted via: Feurio! 1.65 - http://www.feurio.com
#
DISCID=a809840c
DTITLE=Eddie Hinton - Letters From Mississippi
DYEAR=1987
DGENRE=Blues
TTITLE0=My Searching Is Over
TTITLE1=Sad And Lonesome
TTITLE2=Everybody Needs Love
TTITLE3=Letters From Mississippi
TTITLE4=Everybody Meets Mr. Blue
TTITLE5=Uncloudy days
TTITLE6=I Want A Woman
TTITLE7=Ting-A-Ling-Ling
TTITLE8=Wet Weather Man
TTITLE9=I Will Always Love You
TTITLE10=It's All Right
TTITLE11=I'll Come Running (Back To You)
EXTD=ARD Line Records INCD 9.00172
EXTT0=
EXTT1=
EXTT2=
EXTT3=
EXTT4=
EXTT5=
EXTT6=
EXTT7=
EXTT8=
EXTT9=
EXTT10=
EXTT11=
PLAYORDER=
